<svg xmlns="http://www.w3.org/2000/svg" version="1.1" xmlns:xlink="http://www.w3.org/1999/xlink" xmlns:svgjs="http://svgjs.dev/svgjs" width="128" height="128" viewBox="0 0 128 128"><g transform="matrix(0.3843283582089552,0,0,0.3843283582089552,39.30944044257477,12.33387096774193)"><svg viewBox="0 0 74 155" data-background-color="#ffffff" preserveAspectRatio="xMidYMid meet" height="268" width="128" xmlns="http://www.w3.org/2000/svg" xmlns:xlink="http://www.w3.org/1999/xlink"><g id="tight-bounds" transform="matrix(1,0,0,1,0.14071428571428157,0.25)"><svg viewBox="0 0 73.71857142857144 154.5" height="154.5" width="73.71857142857144"><g><svg viewBox="0 0 73.71857142857144 154.5" height="154.5" width="73.71857142857144"><g><svg viewBox="0 0 73.71857142857144 154.5" height="154.5" width="73.71857142857144"><g id="textblocktransform"><svg viewBox="0 0 73.71857142857144 154.5" height="154.5" width="73.71857142857144" id="textblock"><g><svg viewBox="0 0 73.71857142857144 154.5" height="154.5" width="73.71857142857144"><g transform="matrix(1,0,0,1,0,0)"><svg width="73.71857142857144" viewBox="3.9 -35 16.700000000000003 35" height="154.5" data-palette-color="#000000"><path d="M3.9 0L3.9-35 20.6-35 20.6-31.5 7.5-31.5 7.5-20.65 15.6-20.65 14.25-17.15 7.5-17.15 7.5 0 3.9 0Z" opacity="1" transform="matrix(1,0,0,1,0,0)" fill="#ffffff" class="wordmark-text-0" data-fill-palette-color="primary" id="text-0"></path></svg></g></svg></g></svg></g></svg></g></svg></g><defs></defs></svg><rect width="73.71857142857144" height="154.5" fill="none" stroke="none" visibility="hidden"></rect></g></svg></g></svg>